# xmcd CD database file
#
# Track frame offsets:
#	150
#	14822
#	29505
#	44259
#	59733
#	73733
#	87848
#	101616
#	115544
#	129155
#	142786
#	155688
#
# Disc length: 2279 seconds
#
# Revision: 0
# Processed by: cddbd v1.5.1PL0 Copyright (c) Steve Scherf et al.
# Submitted via: CDex 1.51
#
DISCID=a208e50c
DTITLE=5/4TAKEPOD - Occupation RED
DYEAR=1900
DGENRE=サウンドトラック (一般)
TTITLE0=凍土高原 -The Liberte Wind-
TTITLE1=ふたり -Ornamental Gems-
TTITLE2=The Fox And The Grapes -Limelight Glowing-
TTITLE3=水たまり -Alter Ego In The Past-
TTITLE4=冬の花火 -Raining In December-
TTITLE5=少女の檻 -Injury Makes History-
TTITLE6=川 -Jackdow Consideration-
TTITLE7=笑顔の向こう側に -Subtle Expression-
TTITLE8=野道 -Collection Of The Locus-
TTITLE9=日溜まりの街 -Sunny Lagoon-
TTITLE10=夢語り -Free Your Hands Up-
TTITLE11=木々の声と日々のざわめき -Takepod Rumor-
EXTD=
EXTT0=
EXTT1=
EXTT2=
EXTT3=
EXTT4=
EXTT5=
EXTT6=
EXTT7=
EXTT8=
EXTT9=
EXTT10=
EXTT11=
PLAYORDER=
